<svg xmlns="http://www.w3.org/2000/svg" width="28.513" height="25.501" viewBox="0 0 28.513 25.501">
  <g id="Grupo_2080" data-name="Grupo 2080" transform="translate(-203.65 -548.311)">
    <path id="Trazado_746" data-name="Trazado 746" d="M234.287,570.008l-9.141-10.31h1.307c1.12,0,2.24-.014,3.359.011.363.008.429-.122.427-.448-.011-2.511,0-5.022-.013-7.532,0-.325.083-.42.413-.418,2.217.014,4.434,0,6.65.006.429,0,.432,0,.433.452,0,2.5.012,5,0,7.5,0,.342.091.443.437.439,1.515-.018,3.029-.008,4.65-.008Z" transform="translate(-16.366 -3)" fill="#a7a7a7"/>
    <path id="Trazado_747" data-name="Trazado 747" d="M203.678,617.738H206.4v3.872c.14.01.249.024.357.024h19.955q1.1,0,2.206,0c.52,0,.518,0,.517-.5q0-1.544,0-3.088c0-.089.008-.179.014-.3h2.717v6.626H209.314c-1.753,0-3.507,0-5.26.01-.3,0-.406-.072-.4-.394.014-1.98.005-3.959.006-5.939C203.656,617.953,203.67,617.854,203.678,617.738Z" transform="translate(0 -50.573)" fill="#a7a7a7"/>
  </g>
</svg>
