<svg width="51" height="42" viewBox="0 0 51 42" fill="none" xmlns="http://www.w3.org/2000/svg">
<path d="M1.42163 30.6356L14.1534 17.0454C14.669 16.495 15.2811 16.0584 15.9548 15.7605C16.6285 15.4627 17.3505 15.3093 18.0797 15.3093C18.8089 15.3093 19.531 15.4627 20.2047 15.7605C20.8784 16.0584 21.4905 16.495 22.0061 17.0454L34.7378 30.6356M31.036 26.6842L34.5133 22.9725C35.0289 22.4221 35.641 21.9855 36.3147 21.6876C36.9884 21.3898 37.7104 21.2365 38.4396 21.2365C39.1688 21.2365 39.8909 21.3898 40.5646 21.6876C41.2383 21.9855 41.8504 22.4221 42.366 22.9725L49.545 30.6356M5.12343 40.5142H45.8432C46.825 40.5142 47.7666 40.0978 48.4608 39.3568C49.155 38.6158 49.545 37.6107 49.545 36.5627V4.95142C49.545 3.90344 49.155 2.89838 48.4608 2.15734C47.7666 1.41631 46.825 1 45.8432 1H5.12343C4.14165 1 3.20009 1.41631 2.50586 2.15734C1.81164 2.89838 1.42163 3.90344 1.42163 4.95142V36.5627C1.42163 37.6107 1.81164 38.6158 2.50586 39.3568C3.20009 40.0978 4.14165 40.5142 5.12343 40.5142ZM31.036 10.8785H31.0558V10.8996H31.036V10.8785ZM31.9615 10.8785C31.9615 11.1405 31.864 11.3918 31.6904 11.5771C31.5169 11.7623 31.2815 11.8664 31.036 11.8664C30.7906 11.8664 30.5552 11.7623 30.3816 11.5771C30.2081 11.3918 30.1106 11.1405 30.1106 10.8785C30.1106 10.6165 30.2081 10.3653 30.3816 10.18C30.5552 9.99476 30.7906 9.89069 31.036 9.89069C31.2815 9.89069 31.5169 9.99476 31.6904 10.18C31.864 10.3653 31.9615 10.6165 31.9615 10.8785Z" stroke="#777A88" stroke-width="1.5" stroke-linecap="round" stroke-linejoin="round"/>
</svg>
