<svg xmlns="http://www.w3.org/2000/svg" width="25.15" height="19.458" viewBox="0 0 25.15 19.458">
  <defs>
    <style>
      .cls-1 {
        fill: #848484;
      }
    </style>
  </defs>
  <g id="icono_clases" transform="translate(-277.88 -285.816)">
    <path id="Trazado_280" data-name="Trazado 280" class="cls-1" d="M303.03,304.446l-12.572,6.47-12.578-6.47,1.672-.86,10.906,5.61,10.9-5.61Z" transform="translate(0 -5.642)"/>
    <path id="Trazado_281" data-name="Trazado 281" class="cls-1" d="M303.03,299.672l-1.672.86-.744.382-.744.389-9.412,4.839-9.412-4.839-.751-.389-.744-.382-1.672-.86,1.679-.867,1.672.867.744.382.751.382,7.733,3.979,7.733-3.979.744-.382.744-.382,1.672-.867Z" transform="translate(0 -4.124)"/>
    <path id="Trazado_282" data-name="Trazado 282" class="cls-1" d="M303.03,292.286l-1.679.86-.744.389-.744.382-1.672.86-.744.382-.751.389-6.238,3.208-6.245-3.208-.744-.389-.744-.382-1.679-.86-.744-.382-.744-.389-1.679-.86,12.578-6.47Z"/>
  </g>
</svg>
