<svg xmlns="http://www.w3.org/2000/svg" width="22.839" height="22.841" viewBox="0 0 22.839 22.841">
  <defs>
    <style>
      .cls-1 {
        fill: #c6c6c6;
      }
    </style>
  </defs>
  <g id="icon_apuntes" transform="translate(-1274.659 -396.5)">
    <path id="Trazado_1331" data-name="Trazado 1331" class="cls-1" d="M666.2,838.609c.308-.886.641-1.855.986-2.818a1.031,1.031,0,0,1,.249-.355q5.539-5.568,11.084-11.13c.026-.025.059-.043.036-.027l5.167,5.179c-.02.023-.118.148-.229.258q-5.407,5.388-10.821,10.769a1.707,1.707,0,0,1-.584.385c-.909.339-1.829.651-2.692.954a13.476,13.476,0,0,0-1.311-1.838A14.335,14.335,0,0,0,666.2,838.609Zm3.617-1.843a6.665,6.665,0,0,0,.645-.5q4.311-4.3,8.611-8.607c.128-.128.321-.275.329-.422a1.017,1.017,0,0,0-.181-.718c-.128-.124-.459-.08-.688-.043-.121.02-.221.181-.325.285q-4.325,4.324-8.649,8.649c-.091.091-.222.174-.253.284a.962.962,0,0,0-.044.6C669.355,836.481,669.6,836.587,669.821,836.766Zm1.455,1.464c.168.205.3.518.477.544a1.01,1.01,0,0,0,.758-.246q4.446-4.4,8.858-8.831c.3-.3.44-.62.111-.957s-.689-.234-1.005.082q-4.421,4.423-8.84,8.847A3.444,3.444,0,0,0,671.276,838.229Z" transform="translate(609.913 -423.925)"/>
    <path id="Trazado_1332" data-name="Trazado 1332" class="cls-1" d="M744.355,804.438c.811-.759,1.678-1.577,2.553-2.387a.872.872,0,0,1,1.285-.015q1.975,1.958,3.914,3.952a.79.79,0,0,1,.01,1.186c-.839.871-1.7,1.718-2.51,2.528Z" transform="translate(545.119 -405.261)"/>
    <path id="Trazado_1333" data-name="Trazado 1333" class="cls-1" d="M658.817,914.4a3.788,3.788,0,0,1,2.453,2.455l-3.45,1.137-.148-.123Z" transform="translate(616.988 -498.646)"/>
  </g>
</svg>
