<svg xmlns="http://www.w3.org/2000/svg" width="16.6" height="22.842" viewBox="0 0 16.6 22.842">
  <defs>
    <style>
      .cls-1 {
        fill: #c6c6c6;
      }
    </style>
  </defs>
  <g id="icon_basurero" transform="translate(-1316.4 -396.5)">
    <path id="Trazado_1326" data-name="Trazado 1326" class="cls-1" d="M251.955,416.008l0,.082a.156.156,0,0,0-.012.145l-.009.051a.272.272,0,0,0-.006.143q-.088,1.268-.176,2.536a6.546,6.546,0,0,1-.055.657,1.387,1.387,0,0,1-.508.8,3.4,3.4,0,0,1-1.8.756,4.135,4.135,0,0,1-.6.033q-3.148,0-6.295,0a3.619,3.619,0,0,1-2.177-.667,1.522,1.522,0,0,1-.639-.861,5.355,5.355,0,0,1-.069-.8,2.6,2.6,0,0,0-.032-.377.293.293,0,0,0-.014-.173l-.041-.5a.673.673,0,0,0-.017-.285l-.016-.248a.468.468,0,0,0-.01-.2,4.965,4.965,0,0,0-.044-.559,3.314,3.314,0,0,0-.041-.684l-.009-.051a.043.043,0,0,0-.007-.055l-.018-.152a.038.038,0,0,0,0-.06.339.339,0,0,0,0-.153.507.507,0,0,0-.025-.25l-.011-.056a.043.043,0,0,0-.013-.062q0-.095,0-.19a.148.148,0,0,0,0-.148l-.007-.108a.763.763,0,0,0-.019-.285l-.006-.054a1.426,1.426,0,0,0-.02-.367l-.009-.083a3.933,3.933,0,0,0-.049-.705l-.018-.219a.131.131,0,0,0-.008-.118l-.018-.3a2.074,2.074,0,0,0-.039-.511q-.01-.18-.02-.359a.349.349,0,0,0-.012-.2l-.006-.06a6.77,6.77,0,0,0-.045-.734l-.014-.136c-.018-.3-.033-.607-.054-.911-.046-.663-.095-1.327-.141-1.99q-.093-1.338-.185-2.677c-.013-.181-.013-.185.163-.185l2.094,0c.346,0,.693.007,1.039,0,.137,0,.165.047.164.17,0,.876,0,1.753,0,2.629q0,3.5,0,7,0,1.243,0,2.487a.855.855,0,0,0,.809.871.386.386,0,0,0,.2,0,.337.337,0,0,0,.262-.082l.068-.037a.215.215,0,0,0,.132-.1.061.061,0,0,0,.051-.05.607.607,0,0,0,.217-.463,1.308,1.308,0,0,0,0-.337,1.027,1.027,0,0,0,.015-.124q0-1.691,0-3.381a.23.23,0,0,0-.016-.123c.011-.412.012-.824,0-1.236a2.06,2.06,0,0,0,.015-.447q0-3.3,0-6.592c0-.187,0-.187.185-.187h3.3c.319,0,.319,0,.319.313q0,3.247,0,6.493c0,.206.006.411.009.617v.135a.5.5,0,0,0,0,.2.21.21,0,0,0,0,.028q0,2.286,0,4.572a.258.258,0,0,0,.028.149.332.332,0,0,0,.1.242l.019.025a.082.082,0,0,0,.06.077.2.2,0,0,0,.074.1.839.839,0,0,0,.891.16.8.8,0,0,0,.551-.755.1.1,0,0,0,.006-.1v-.055a.07.07,0,0,0-.008-.082l0-.061a1.468,1.468,0,0,0,.007-.448V416.2a.172.172,0,0,0-.006-.146l.005-.051a.074.074,0,0,0,0-.085v-.114q0-1.363,0-2.727c0-.046.01-.092.01-.139q0-1.064,0-2.127c0-.051-.007-.1-.011-.152,0-.028.006-.056.006-.084q0-2.734,0-5.467c0-.033-.006-.065-.009-.1a.353.353,0,0,0,.013-.068c0-.325-.008-.27.275-.273.833-.008,1.667,0,2.5,0,.145,0,.29,0,.435,0,.1,0,.145.036.137.142q-.094,1.289-.185,2.579-.06.855-.119,1.71a.384.384,0,0,0,.008.069q-.009.156-.019.311a2.856,2.856,0,0,0-.042.672.245.245,0,0,0-.017.136.15.15,0,0,0-.009.117l-.02.22c-.011.12-.029.241-.032.361a4.961,4.961,0,0,0-.031.684l-.022.22a.288.288,0,0,0-.008.175l-.018.191c-.016.186-.034.372-.047.558q-.064.866-.125,1.732c-.023.326-.042.652-.063.977q0,.083,0,.166A.709.709,0,0,0,251.955,416.008Z" transform="translate(1079.021 -1.871)"/>
    <path id="Trazado_1327" data-name="Trazado 1327" class="cls-1" d="M229.166,320.24h-3.642q-2.249,0-4.5,0c-.111,0-.156-.025-.155-.148.006-.516.009-1.031,0-1.547a1.034,1.034,0,0,1,1.059-1.036c1.04.012,2.081,0,3.122,0,.225,0,.219,0,.222-.223a3.49,3.49,0,0,1,.071-.99,1.6,1.6,0,0,1,1.513-1.129q2.32,0,4.64,0a1.582,1.582,0,0,1,1.563,1.5c.01.215.008.431.012.647,0,.194.007.2.2.2l2.728,0h.45a1.012,1.012,0,0,1,1.022,1q-.005.787,0,1.575c0,.124-.041.157-.163.156-.886-.005-1.771,0-2.657,0h-5.483Zm0-2.723h0c.839,0,1.677,0,2.516,0,.136,0,.183-.044.176-.178-.008-.164,0-.328,0-.492a.421.421,0,0,0-.415-.467q-2.256,0-4.512,0a.41.41,0,0,0-.456.463c0,.154,0,.309,0,.464,0,.2,0,.2.2.2Z" transform="translate(1095.531 81.325)"/>
  </g>
</svg>
