<svg xmlns="http://www.w3.org/2000/svg" width="20.883" height="16.294" viewBox="0 0 20.883 16.294">
  <defs>
    <style>
      .cls-1 {
        fill: #848484;
      }
    </style>
  </defs>
  <g id="icono_audio" transform="translate(-405.653 -289.507)">
    <path id="Trazado_276" data-name="Trazado 276" class="cls-1" d="M417.242,297.656q0,3.676,0,7.352a.757.757,0,0,1-1.279.583q-.922-.8-1.847-1.6-1.551-1.341-3.1-2.68a.276.276,0,0,0-.169-.054q-2.189,0-4.378,0a.787.787,0,0,1-.584-.214.711.711,0,0,1-.226-.523q0-2.9,0-5.793a.741.741,0,0,1,.761-.741c.284,0,.567,0,.851,0q1.819,0,3.637,0a.292.292,0,0,0,.208-.075q2.423-2.1,4.849-4.195a.752.752,0,0,1,1.246.327,1.041,1.041,0,0,1,.034.284Q417.243,293.991,417.242,297.656Z" transform="translate(0)"/>
    <path id="Trazado_277" data-name="Trazado 277" class="cls-1" d="M447.347,297.667a12.542,12.542,0,0,1-2.731,7.859.754.754,0,0,1-1.364-.49.8.8,0,0,1,.192-.461,10.882,10.882,0,0,0,1.6-2.759,10.645,10.645,0,0,0,.748-3.236,10.866,10.866,0,0,0-2.36-7.671.737.737,0,0,1-.105-.836.716.716,0,0,1,.7-.416.756.756,0,0,1,.592.319,12.482,12.482,0,0,1,1.689,2.815,12.268,12.268,0,0,1,.988,4.012C447.324,297.12,447.335,297.436,447.347,297.667Z" transform="translate(-20.81 -0.084)"/>
    <path id="Trazado_278" data-name="Trazado 278" class="cls-1" d="M442.13,300.184a9.78,9.78,0,0,1-1.9,5.8.725.725,0,0,1-.719.318.715.715,0,0,1-.6-.475.738.738,0,0,1,.111-.741,7.747,7.747,0,0,0,1.1-2.058,8.205,8.205,0,0,0-1.065-7.7.805.805,0,0,1-.15-.776.753.753,0,0,1,1.318-.184,9.809,9.809,0,0,1,1.909,5.819Z" transform="translate(-18.377 -2.515)"/>
    <path id="Trazado_279" data-name="Trazado 279" class="cls-1" d="M436.528,302.836a6.632,6.632,0,0,1-1.075,3.623.752.752,0,1,1-1.275-.8,5.2,5.2,0,0,0,.784-2.058,5.066,5.066,0,0,0-.721-3.483.883.883,0,0,1-.174-.632.754.754,0,0,1,.586-.618.745.745,0,0,1,.781.317,6.583,6.583,0,0,1,.958,2.312A6.516,6.516,0,0,1,436.528,302.836Z" transform="translate(-15.722 -5.172)"/>
  </g>
</svg>
