<svg xmlns="http://www.w3.org/2000/svg" width="18.339" height="25.498" viewBox="0 0 18.339 25.498">
  <defs>
    <style>
      .cls-1, .cls-2 {
        fill: #848484;
      }

      .cls-2 {
        stroke: #fff;
        stroke-width: 0.5px;
      }
    </style>
  </defs>
  <g id="icono_certificate" transform="translate(-882.034 199.609)">
    <path id="Trazado_273" data-name="Trazado 273" class="cls-1" d="M1053.9,89.945l2.735,7.143-3.425-1.132-1.793,3.132-2.63-6.866c.505-.365.983-.706,1.455-1.054a1.143,1.143,0,0,1,.886-.235c.366.055.733.105,1.1.138a1.449,1.449,0,0,0,1.543-.9C1053.8,90.107,1053.841,90.045,1053.9,89.945Z" transform="translate(-157.259 -273.198)"/>
    <path id="Trazado_274" data-name="Trazado 274" class="cls-1" d="M904.1,92.368l-2.648,6.911-1.793-3.131-3.425,1.132,2.73-7.132a1.546,1.546,0,0,1,.087.129,1.553,1.553,0,0,0,1.878.966c1.454-.225,1.243-.224,2.3.589A9.47,9.47,0,0,0,904.1,92.368Z" transform="translate(-13.196 -273.389)"/>
    <path id="Trazado_275" data-name="Trazado 275" class="cls-2" d="M899.847-191.178c-.171-.242-.362-.469-.548-.7a1.492,1.492,0,0,1-.365-1.159c.045-.358.1-.716.133-1.075a1.068,1.068,0,0,0-.72-1.26c-.277-.127-.563-.236-.849-.342a1.621,1.621,0,0,1-1-1.014c-.108-.3-.225-.588-.356-.874a1.043,1.043,0,0,0-1.129-.675c-.267.027-.536.05-.8.1a1.8,1.8,0,0,1-1.656-.413,6.829,6.829,0,0,0-.682-.526,1.078,1.078,0,0,0-1.343,0c-.31.219-.606.458-.907.69a1.376,1.376,0,0,1-1.042.288c-.4-.048-.79-.1-1.185-.148a1.053,1.053,0,0,0-1.132.682c-.129.276-.246.56-.347.847a1.676,1.676,0,0,1-1.057,1.064,9.646,9.646,0,0,0-1.062.474.778.778,0,0,0-.45.718,8.082,8.082,0,0,0,.1,1.13,1.779,1.779,0,0,1-.4,1.581,6.575,6.575,0,0,0-.482.611,1.124,1.124,0,0,0-.009,1.529c.191.273.411.526.615.79a1.369,1.369,0,0,1,.31,1.011c-.045.414-.1.826-.143,1.241a1.012,1.012,0,0,0,.595,1.092,9.5,9.5,0,0,0,.92.387,1.7,1.7,0,0,1,1.077,1.082,9.05,9.05,0,0,0,.417.968.97.97,0,0,0,.955.55,3.157,3.157,0,0,0,.661-.076,2.03,2.03,0,0,1,2.073.526,3.541,3.541,0,0,0,.463.355,1.1,1.1,0,0,0,1.412,0c.3-.22.588-.451.884-.675a1.317,1.317,0,0,1,.962-.287c.377.041.753.1,1.13.143a1.079,1.079,0,0,0,1.262-.679c.139-.292.251-.6.367-.9a1.618,1.618,0,0,1,.991-.985c.329-.122.655-.257.971-.409a1.03,1.03,0,0,0,.6-1.09,3.4,3.4,0,0,0-.07-.551,2.047,2.047,0,0,1,.559-2.117,2.3,2.3,0,0,0,.289-.373A1.129,1.129,0,0,0,899.847-191.178ZM887.341-190l1.016-1.094,2.256,2.109,4.173-3.749,1.043,1.159-5.348,4.808Z" transform="translate(0)"/>
  </g>
</svg>
