<svg xmlns="http://www.w3.org/2000/svg" width="13.024" height="12.466" viewBox="0 0 13.024 12.466">
  <defs>
    <style>
      .cls-1 {
        fill: #ffc500;
      }
    </style>
  </defs>
  <path id="icono_estrella_valoracion_yellow" class="cls-1" d="M544.8-474.835l-2.762,1.452a.815.815,0,0,1-1.182-.859l.528-3.076a.815.815,0,0,0-.234-.721l-2.235-2.178a.815.815,0,0,1,.452-1.39l3.088-.449a.815.815,0,0,0,.614-.446l1.381-2.8a.815.815,0,0,1,1.462,0l1.381,2.8a.814.814,0,0,0,.613.446l3.088.449a.815.815,0,0,1,.452,1.39l-2.235,2.178a.814.814,0,0,0-.234.721l.527,3.076a.815.815,0,0,1-1.182.859l-2.762-1.452A.815.815,0,0,0,544.8-474.835Z" transform="translate(-538.664 485.754)"/>
</svg>
