<svg xmlns="http://www.w3.org/2000/svg" width="16.672" height="16.088" viewBox="0 0 16.672 16.088">
  <defs>
    <style>
      .cls-1 {
        fill: #e76474;
      }
    </style>
  </defs>
  <g id="icono_candado_desbloqueado" transform="translate(5.734)">
    <path id="Trazado_262" data-name="Trazado 262" class="cls-1" d="M602.919,184.39a1.2,1.2,0,0,0-1.253-1.246h-4.224v0h-2.091l-2.112,0a1.187,1.187,0,0,0-1.253,1.241q0,3.173,0,6.347a.364.364,0,0,0,.161.339c.406.277.794.587,1.22.829a7.825,7.825,0,0,0,5.323,1,9.342,9.342,0,0,0,4.118-1.9.376.376,0,0,0,.111-.267Q602.925,187.563,602.919,184.39Z" transform="translate(-591.983 -176.925)"/>
    <path id="Trazado_263" data-name="Trazado 263" class="cls-1" d="M621.97,41.735h1.3c0-.731.006-1.446,0-2.161a1.981,1.981,0,0,1,.716-1.55,3.469,3.469,0,0,1,4.1-.2,2.085,2.085,0,0,1,.968,1.815c-.011.592,0,1.184,0,1.776v.318h1.3c0-.044.01-.076.01-.107,0-.729.011-1.458,0-2.186a2.7,2.7,0,0,0-.75-1.8,4.979,4.979,0,0,0-6.469-.412,2.872,2.872,0,0,0-1.177,2.187c-.018.728,0,1.458,0,2.186C621.957,41.644,621.965,41.688,621.97,41.735Z" transform="translate(-627.685 -36.227)"/>
  </g>
</svg>
