<svg width="24" height="24" viewBox="0 0 24 24" fill="none" xmlns="http://www.w3.org/2000/svg">
<path d="M21.6322 9.63118H14.3692V2.36828C14.3692 1.73991 14.1198 1.13731 13.6755 0.69299C13.2312 0.248668 12.6284 -0.000976562 12 -0.000976562C11.689 -0.000976616 11.381 0.060341 11.0937 0.179424C10.8063 0.298508 10.5451 0.473051 10.3252 0.693075C10.1053 0.913099 9.93097 1.17427 9.81206 1.46171C9.69314 1.74916 9.63202 2.05721 9.6322 2.36828V9.63118H2.36782C2.05675 9.63118 1.74884 9.69246 1.46146 9.81154C1.17409 9.93063 0.912933 10.1052 0.693038 10.3252C0.473142 10.5452 0.298767 10.8064 0.179852 11.0939C0.0609366 11.3813 -0.000181508 11.6894 4.04891e-07 12.0004V12.0004C4.04891e-07 12.6284 0.249651 13.2307 0.693714 13.6748C1.13778 14.1188 1.73982 14.3683 2.36782 14.3683H9.6322V21.6326C9.6322 22.2606 9.88152 22.8628 10.3256 23.3069C10.7696 23.7509 11.372 24.0004 12 24.0004C12.6282 24.0004 13.2305 23.751 13.6748 23.307C14.1191 22.8629 14.3688 22.2607 14.3692 21.6326V14.3738H21.6322C21.9432 14.3738 22.251 14.3126 22.5382 14.1936C22.8255 14.0746 23.0865 13.9002 23.3063 13.6803C23.5262 13.4604 23.7009 13.1994 23.8199 12.9121C23.9389 12.6248 24 12.3169 24 12.006C24.001 11.6944 23.9405 11.3858 23.8219 11.0977C23.7033 10.8096 23.529 10.5477 23.309 10.3271C23.0891 10.1065 22.8277 9.93148 22.5399 9.81205C22.2522 9.69262 21.9438 9.63118 21.6322 9.63118V9.63118Z" fill="#D7E1FC"/>
</svg>