<svg xmlns="http://www.w3.org/2000/svg" width="13.351" height="16" viewBox="0 0 13.351 16">
  <g id="Grupo_274" data-name="Grupo 274" transform="translate(-448 -611.67)">
    <g id="Grupo_273" data-name="Grupo 273" transform="translate(448 611.669)">
      <path id="Trazado_253" data-name="Trazado 253" d="M964.73-122.183q-2.749,0-5.5,0c-.854,0-1.2-.365-1.184-1.229a6.747,6.747,0,0,1,6.012-6.457,6.687,6.687,0,0,1,7.135,5.078,7.652,7.652,0,0,1,.2,1.37c.045.868-.316,1.235-1.168,1.237Q967.479-122.178,964.73-122.183Z" transform="translate(-958.048 138.182)" fill="#848484"/>
      <path id="Trazado_254" data-name="Trazado 254" d="M989.945-203.972a3.819,3.819,0,0,1-3.763-3.881,3.836,3.836,0,0,1,3.769-3.831,3.834,3.834,0,0,1,3.789,3.862A3.82,3.82,0,0,1,989.945-203.972Z" transform="translate(-983.283 211.684)" fill="#848484"/>
    </g>
  </g>
</svg>
