<svg width="71" height="70" viewBox="0 0 71 70" fill="none" xmlns="http://www.w3.org/2000/svg">
<path d="M54.083 38.6755C53.7109 38.143 53.6869 38.2662 54.103 37.69C55.3316 36.0091 56.6881 34.4435 58.1007 32.9176C58.1447 32.8699 58.2168 32.8262 58.1968 32.7547C58.1687 32.6593 58.0727 32.6872 58.0047 32.6832C57.0523 32.5997 56.0959 32.5242 55.1435 32.4368C54.9994 32.4249 54.9074 32.4845 54.8233 32.5838C54.5392 32.9335 54.2471 33.2713 53.971 33.6249C53.5628 34.1415 53.1707 34.6621 52.7665 35.1826C52.7185 35.2462 52.6705 35.3416 52.5744 35.3058C52.4864 35.274 52.5224 35.1747 52.5304 35.1071C52.5944 34.2647 52.6504 33.4183 52.7265 32.5759C52.7465 32.3534 52.7065 32.262 52.4624 32.2501C51.7461 32.2222 51.0298 32.1785 50.3175 32.1308C50.1134 32.115 50.0414 32.1746 50.0294 32.3852C49.9173 34.3084 49.7933 36.2277 49.6732 38.147H49.6892C49.5892 40.0543 49.4971 41.9617 49.3891 43.8651C49.3771 44.0757 49.4411 44.1393 49.6452 44.1512C50.3095 44.1909 50.9737 44.2426 51.638 44.3022C51.9822 44.334 51.9822 44.3419 52.0062 43.9922C52.0702 42.9909 52.1262 41.9895 52.1903 40.9881C52.1943 40.9047 52.1662 40.7775 52.2703 40.7497C52.3703 40.7219 52.3823 40.853 52.4223 40.9126C53.2187 42.061 53.923 43.2651 54.6913 44.4293C54.7593 44.5327 54.8193 44.6082 54.9554 44.6241C55.9998 44.7313 57.0403 44.8506 58.0847 44.9578C58.1527 44.9658 58.2448 45.0055 58.2848 44.9181C58.3168 44.8506 58.2488 44.7949 58.2168 44.7433C56.8922 42.6809 55.4756 40.6861 54.079 38.6715L54.083 38.6755Z" fill="white"/>
<path d="M47.589 41.3654C47.0928 39.5693 46.5926 37.7692 46.0884 35.9731C45.7243 34.6777 45.3481 33.3902 44.988 32.0948C44.9239 31.8723 44.8159 31.7849 44.5718 31.7769C43.7795 31.7531 42.9911 31.7054 42.2028 31.6458C42.0067 31.6299 41.9107 31.6975 41.8467 31.8683C41.6186 32.4564 41.3785 33.0366 41.1544 33.6287C40.346 35.7784 39.5537 37.9361 38.7854 40.1018C38.4092 41.1627 38.0131 42.2197 37.6249 43.2767C37.5048 43.6065 37.5129 43.6105 37.877 43.6224C38.6093 43.6463 39.3416 43.6661 40.0739 43.6979C40.238 43.7059 40.326 43.6622 40.386 43.4953C40.6582 42.7284 40.9543 41.9734 41.2304 41.2104C41.2944 41.0276 41.3905 40.968 41.5745 40.976C42.0587 40.9958 42.5389 40.9958 43.0231 41.0038V41.0515C43.4873 41.0594 43.9555 41.0833 44.4197 41.0674C44.6798 41.0594 44.7879 41.1588 44.8479 41.3972C45.052 42.176 45.2721 42.9469 45.4882 43.7218C45.5202 43.833 45.5642 43.9205 45.7003 43.9284C46.5166 43.9721 47.3289 44.0158 48.1453 44.0595C48.2813 44.0675 48.3133 44.0198 48.2733 43.8807C48.0372 43.0423 47.8211 42.1999 47.589 41.3614V41.3654ZM43.8955 38.5322C43.6474 38.5282 43.3953 38.5242 43.1472 38.5203V38.4805C42.8751 38.4765 42.599 38.4686 42.3229 38.4686C42.1428 38.4686 42.1188 38.3931 42.1628 38.2341C42.4909 37.1056 42.8111 35.9731 43.1352 34.8446C43.1472 34.8049 43.1552 34.7651 43.1712 34.7254C43.1912 34.6777 43.2192 34.6261 43.2752 34.63C43.3353 34.63 43.3353 34.7016 43.3473 34.7453C43.4153 35.0433 43.4793 35.3453 43.5434 35.6433C43.7354 36.5175 43.9275 37.3917 44.1196 38.262C44.1716 38.5004 44.1396 38.5401 43.8955 38.5361V38.5322Z" fill="white"/>
<path d="M67.1364 33.5888C64.9235 33.3703 62.7106 33.1478 60.4977 32.9173C60.3056 32.8974 60.2416 32.9689 60.2335 33.1438C60.2215 33.3584 60.1895 33.5729 60.1695 33.7875C59.9574 36.0406 59.7854 38.3016 59.6413 40.7136C59.5413 41.9971 59.4372 43.4276 59.3172 44.8582C59.3012 45.0568 59.3532 45.1164 59.5493 45.1323C60.0295 45.176 60.5097 45.2396 60.9899 45.3032C62.7226 45.5297 64.4593 45.7562 66.192 45.9867C66.3761 46.0105 66.4561 45.9469 66.4721 45.7721C66.5402 44.9933 66.6082 44.2184 66.6762 43.4396C66.6882 43.2965 66.6362 43.225 66.4882 43.2091C66.172 43.1733 65.8599 43.1296 65.5478 43.0899C64.4993 42.9587 63.4509 42.8316 62.3985 42.7084C62.2064 42.6846 62.1463 42.6011 62.1623 42.4104C62.2144 41.8302 62.2584 41.254 62.2984 40.6739C62.3144 40.4673 62.3744 40.3878 62.6105 40.4156C63.719 40.5428 64.8315 40.6421 65.9399 40.7573C66.132 40.7772 66.228 40.7335 66.24 40.5149C66.2881 39.7798 66.3521 39.0407 66.4201 38.3056C66.4361 38.1506 66.3881 38.0791 66.228 38.0632C65.0836 37.9519 63.9431 37.8327 62.7986 37.7254C62.5985 37.7056 62.5185 37.646 62.5385 37.4353C62.5945 36.883 62.6385 36.3267 62.6826 35.7744C62.7106 35.4406 62.7186 35.4286 63.0667 35.4604C64.3593 35.5796 65.6558 35.6989 66.9443 35.83C67.1524 35.8499 67.2245 35.7823 67.2445 35.5836C67.2925 35.0392 67.3405 34.4909 67.4205 33.9504C67.4566 33.7001 67.4005 33.6127 67.1444 33.5849L67.1364 33.5888Z" fill="white"/>
<path d="M33.8357 34.4352C34.3919 34.6657 34.8081 35.067 35.1282 35.5677C35.2163 35.7068 35.2843 35.7545 35.4364 35.6392C36.0526 35.1704 36.6729 34.7094 37.2971 34.2604C37.4772 34.1293 37.5012 34.018 37.3852 33.8273C37.0891 33.3504 36.7369 32.9252 36.3127 32.5557C34.58 31.0417 32.083 30.7874 30.1862 31.9795C28.1733 33.2431 27.265 35.1465 27.1289 37.2406C27.1289 38.5559 27.349 39.593 27.8492 40.5626C28.6455 42.1044 29.854 43.1733 31.5668 43.5627C33.8197 44.0793 35.9086 43.0501 37.1891 41.2381C37.3091 41.0673 37.2731 40.964 37.1211 40.8447C36.5728 40.4116 36.0326 39.9705 35.4884 39.5334C35.3003 39.3824 35.1362 39.4023 34.9962 39.593C33.9157 41.0514 31.9069 41.1825 30.7024 39.8712C29.4499 38.5043 29.5619 36.1757 30.9585 34.9518C31.8069 34.2087 32.7713 33.9981 33.8357 34.4392V34.4352Z" fill="white"/>
<path d="M26.1042 41.0713C25.0238 41.111 23.9393 41.1348 22.8589 41.1666C22.4787 41.1785 22.4667 41.1666 22.4587 40.7891C22.4307 39.1877 22.4067 37.5863 22.3827 35.985C22.3627 34.618 22.3507 33.2471 22.3467 31.8802C22.3467 31.6576 22.3067 31.5583 22.0425 31.5782C21.3222 31.6258 20.5939 31.6417 19.8696 31.6616C19.6776 31.6656 19.6055 31.7371 19.6095 31.9278C19.6455 33.859 19.6736 35.7942 19.7056 37.7254C19.7376 39.6765 19.8176 41.6236 19.8696 43.5707C19.8736 43.7535 19.8977 43.8647 20.1297 43.8568C22.1346 43.7813 24.1394 43.7098 26.1483 43.6462C26.3603 43.6382 26.4204 43.5667 26.4164 43.3641C26.4004 42.6925 26.3924 42.021 26.3964 41.3494C26.3964 41.1269 26.3203 41.0633 26.1002 41.0713H26.1042Z" fill="white"/>
<path d="M17.2496 37.9082C17.2015 35.985 17.1535 34.0617 17.1095 32.1345C17.1015 31.8007 17.1095 31.7967 16.7614 31.8245C16.0651 31.8762 15.3688 31.9477 14.6685 31.9914C14.4684 32.0034 14.4044 32.055 14.4084 32.2696C14.4884 35.2896 14.5885 38.3056 14.7245 41.3216C14.7645 42.1998 14.8165 43.078 14.8486 43.9561C14.8566 44.1548 14.9166 44.2065 15.1167 44.1866C15.821 44.1191 16.5253 44.0634 17.2336 44.0157C17.4136 44.0038 17.4697 43.9402 17.4616 43.7535C17.3696 41.8064 17.2936 39.8553 17.2496 37.9082Z" fill="white"/>
<path d="M12.8627 43.1893C12.6946 42.1165 12.5265 41.0436 12.3585 39.9746C12.2104 39.0448 12.0664 38.111 11.9063 37.1812C11.8463 36.8275 11.8383 36.4619 11.7102 36.1202C11.7022 36.0566 11.6942 35.993 11.6902 35.9334C11.5381 35.3851 11.5101 34.8168 11.4061 34.2605C11.3341 33.8989 11.29 33.5294 11.234 33.1638C11.222 33.0843 11.194 33.0048 11.226 32.9254C11.218 32.8459 11.206 32.7704 11.198 32.6909C11.19 32.5121 11.246 32.2618 10.9619 32.2816C10.3016 32.3253 9.64135 32.4048 8.97707 32.4684C8.86102 32.4803 8.801 32.532 8.76498 32.6393C8.47686 33.438 8.16873 34.2367 7.88862 35.0394C7.3644 36.5573 6.75214 38.0434 6.27194 39.5773C6.25194 39.6409 6.25194 39.7442 6.1559 39.7481C6.06386 39.7481 6.04785 39.6607 6.01184 39.5972C5.53164 38.6792 5.05544 37.7613 4.57124 36.8474C3.96298 35.699 3.36273 34.5466 2.70646 33.4221C2.65044 33.3267 2.60642 33.2274 2.47036 33.2393C1.8341 33.3029 1.19783 33.3744 0.561567 33.426C0.385494 33.438 0.325469 33.5095 0.317465 33.6645C0.269445 34.5546 0.177407 35.4486 0.205419 36.3427C0.197415 36.5056 0.193414 36.6686 0.18541 36.8315C0.149395 37.4474 0.105377 38.0633 0.0733639 38.6792C0.0173406 39.7402 0.0733638 40.8012 0.0293455 41.8621C-0.0186745 43.0701 0.00933722 44.2861 0.00533555 45.4941C0.00533555 45.6411 -0.00666944 45.7921 0.00533555 45.9431C0.0213422 46.2014 0.0773655 46.2451 0.337474 46.1974C1.02576 46.0782 1.71004 45.955 2.39833 45.8358C2.74247 45.7762 2.73847 45.7762 2.74247 45.4225C2.77849 43.3244 2.74247 41.2264 2.84252 39.1283C2.84252 39.0845 2.84252 39.0448 2.85052 39.0051C2.85452 38.9614 2.86653 38.9216 2.91855 38.9137C2.96657 38.9057 2.99458 38.9415 3.01459 38.9773C3.0346 39.013 3.0546 39.0488 3.07061 39.0885C3.84293 40.5469 4.62326 42.0012 5.30754 43.5033C5.38758 43.6741 5.49162 43.7099 5.6797 43.694C6.1759 43.6503 6.66811 43.5827 7.16031 43.5072C7.34439 43.4794 7.44443 43.4357 7.49245 43.2529C7.64852 42.6251 7.88862 42.0251 8.0967 41.4131C8.43284 40.4157 8.78499 39.4263 9.13313 38.4289C9.15714 38.3653 9.15314 38.258 9.25719 38.2779C9.33722 38.2938 9.31321 38.3852 9.32521 38.4488C9.38124 38.8064 9.44126 39.168 9.49729 39.5256C9.75739 41.1787 10.0175 42.8277 10.2776 44.4808C10.3016 44.6278 10.3656 44.7073 10.5257 44.6874C11.282 44.5881 12.0423 44.5007 12.8067 44.4689C12.9907 44.4609 13.0788 44.3655 13.0308 44.147C12.9587 43.8331 12.9227 43.5112 12.8747 43.1893H12.8627Z" fill="white"/>
<path d="M38.1564 4.02891C38.2364 3.17855 37.7042 2.43547 36.9679 2.36395C36.8118 2.34805 36.6638 2.36395 36.5197 2.41163C36.6518 1.56922 37.2 0.627457 37.2 0.627457C37.2 0.627457 37.5321 0.214195 37.324 0.0631961C37.116 -0.0917768 37.0039 0.0870381 37.0039 0.0870381C36.6077 0.925482 36.3516 1.66856 36.2716 2.29242C36.2716 2.29242 36.2716 2.32421 36.2796 2.36792C36.1636 2.31626 36.0395 2.2805 35.9115 2.26858C35.1751 2.20103 34.5109 2.83284 34.4308 3.67923C34.3388 4.63689 34.9591 5.40778 36.1355 5.51904C37.34 5.63428 38.0684 4.95875 38.1564 4.02891Z" fill="url(#paint0_linear_562_13)"/>
<path d="M53.7513 23.7143C53.3431 23.3209 52.8549 22.9593 52.2907 22.8997C51.1142 22.7685 50.2178 23.9288 49.7577 25.0097C49.3535 25.9594 49.0734 26.9687 48.5091 27.831C47.9449 28.6933 47.0005 29.4085 45.9721 29.341C44.8076 29.2615 43.9632 28.2641 43.1869 27.3979C42.2545 26.3607 41.2301 25.411 40.1256 24.5607C39.0932 23.7699 37.7767 23.0308 36.5522 23.4719C34.7794 24.1116 34.4393 26.7541 32.6785 27.4296C31.5301 27.8707 30.2655 27.2826 29.1691 26.7263C26.8961 25.5779 24.5512 24.5011 22.0501 24.0202C19.5451 23.5434 16.844 23.7103 14.615 24.9461C11.3737 26.7422 4.95101 36.2472 6.67573 25.113C6.8398 24.0441 6.92383 22.5937 7.8082 21.8307C8.25238 21.4493 9.04471 21.4811 9.62095 21.3936C10.3813 21.2784 11.1416 21.1671 11.9019 21.0599C14.9472 20.6267 18.0004 20.2413 21.0577 19.9115C27.1723 19.2479 33.3108 18.7949 39.4574 18.5445C45.6039 18.2982 51.7585 18.2584 57.909 18.4253C58.3092 18.4372 58.7094 18.4492 59.1095 18.4611C59.4857 18.473 59.8859 18.4929 60.19 18.7154C60.5942 19.0134 60.6862 19.5618 60.7462 20.0585C61.1224 23.3288 62.0188 30.3503 58.7414 29.949C57.3088 29.7741 55.9282 25.7965 53.7713 23.7103L53.7513 23.7143Z" fill="url(#paint1_linear_562_13)"/>
<path d="M52.279 10.2556C52.235 9.87414 51.8909 9.59598 51.5147 9.50856C48.7376 8.8688 36.2084 6.16671 24.9557 6.09518C22.4506 6.07929 20.0136 6.19453 17.7567 6.49255C17.5446 6.52037 17.3445 6.59587 17.1684 6.70315C16.8123 6.92171 16.5522 7.28331 16.4761 7.71247L15.0475 15.4691C15.0475 15.4691 14.6914 16.7208 15.5638 17.2413C16.064 17.5393 16.8123 17.0426 17.2204 16.7804C18.8971 15.6995 20.3097 14.0783 21.7463 12.7113C22.5227 11.9722 23.267 11.1696 24.0873 10.4821C24.5435 10.1006 25.2358 10.4026 25.2638 10.9907C25.3118 12.0438 24.9797 13.2518 25.2838 14.273C25.4999 14.9962 26.0961 15.1035 26.6404 14.6028C28.7052 12.7034 31.3663 10.4185 34.3156 10.1682C36.2484 10.0053 37.6009 11.0623 38.4013 12.7709C38.9975 14.0505 40.7342 13.963 41.8107 13.4862C42.8191 13.0412 43.9156 12.7948 45.016 12.7908C46.0805 12.7908 48.4174 13.3988 47.5491 17.1579C49.4098 17.1142 50.5543 17.0744 52.3911 17.1499C52.4831 14.8253 52.5071 12.0438 52.291 10.2437L52.279 10.2556Z" fill="url(#paint2_linear_562_13)"/>
<path d="M69.7031 49.1796C51.0553 44.5344 20.5266 45.7504 0.0100898 50.0379C0.0100898 50.0379 -0.117964 49.9982 0.53831 50.634C1.05052 51.1267 2.50713 50.6817 2.50713 50.6817C2.50713 50.6817 7.18908 49.7518 12.5433 48.9213C29.5784 46.6087 46.4134 46.9464 63.0643 49.7717C61.5677 49.8194 57.8462 49.9465 52.2838 50.2128C42.6838 50.6777 38.202 54.6633 37.3096 55.4302C35.5009 56.9839 34.1603 56.9362 34.0763 56.9322C34.0763 56.9322 32.7797 57.0316 30.987 55.5534C30.935 55.5136 30.8869 55.4699 30.8349 55.4262L30.8189 55.4103C30.6789 55.2792 30.4388 55.0726 30.0906 54.8103C29.8345 54.6156 29.5224 54.3931 29.1502 54.1507C29.0582 54.0911 28.9701 54.0394 28.8861 53.9957C28.3699 53.9957 27.8537 54.0116 27.3415 54.0553C27.3495 54.1984 27.4495 54.4646 27.9017 54.9136C28.574 55.5812 30.0506 57.7985 30.6789 58.9906C31.5192 60.4966 32.1034 62.2649 32.4916 64.3233C32.4916 64.3233 32.9598 66.1114 30.2947 66.2902C27.8897 66.4531 24.4283 67.0055 24.4283 67.0055C24.4283 67.0055 21.1869 67.5062 22.5915 68.7936C24.1922 70.2599 33.8682 69.9778 34.0723 69.9738C34.0723 69.9738 43.9404 70.2798 45.557 68.7976C46.9616 67.5101 43.7203 67.0095 43.7203 67.0095C43.7203 67.0095 40.2548 66.4571 37.8538 66.2942C35.1887 66.1154 35.6569 64.3272 35.6569 64.3272C37.7098 53.4235 45.1609 50.6697 68.2745 51.5996C68.8747 51.6234 69.391 51.5837 69.9072 51.3016C72.4522 49.9227 69.7151 49.1677 69.7151 49.1677L69.7031 49.1796Z" fill="url(#paint3_linear_562_13)"/>
<defs>
<linearGradient id="paint0_linear_562_13" x1="36.0195" y1="5.69785" x2="36.5563" y2="2.01318" gradientUnits="userSpaceOnUse">
<stop stop-color="#F4B324"/>
<stop offset="1" stop-color="#EFD907"/>
</linearGradient>
<linearGradient id="paint1_linear_562_13" x1="33.9071" y1="28.2045" x2="33.1928" y2="19.3941" gradientUnits="userSpaceOnUse">
<stop stop-color="#F4B324"/>
<stop offset="1" stop-color="#EFD907"/>
</linearGradient>
<linearGradient id="paint2_linear_562_13" x1="33.5833" y1="17.2811" x2="35.012" y2="5.68345" gradientUnits="userSpaceOnUse">
<stop stop-color="#F4B324"/>
<stop offset="1" stop-color="#EFD907"/>
</linearGradient>
<linearGradient id="paint3_linear_562_13" x1="40.0067" y1="69.4533" x2="34.6444" y2="46.151" gradientUnits="userSpaceOnUse">
<stop stop-color="#F4B324"/>
<stop offset="1" stop-color="#EFD907"/>
</linearGradient>
</defs>
</svg>
